<svg xmlns="http://www.w3.org/2000/svg" xmlns:xlink="http://www.w3.org/1999/xlink" width="500" zoomAndPan="magnify" viewBox="0 0 375 374.999991" height="500" preserveAspectRatio="xMidYMid meet" version="1.0"><defs><g/><clipPath id="cb3096d4d7"><path d="M 119.816406 84.148438 L 254.816406 84.148438 L 254.816406 216.898438 L 119.816406 216.898438 Z M 119.816406 84.148438 " clip-rule="nonzero"/></clipPath></defs><g clip-path="url(#cb3096d4d7)"><path fill="#ff1616" d="M 169.730469 189.90625 L 169.730469 170.148438 C 169.730469 168.878906 168.699219 167.84375 167.429688 167.84375 L 143.445312 167.835938 L 143.445312 151.675781 L 171.550781 151.675781 C 180.695312 151.675781 188.132812 144.210938 188.132812 135.035156 L 188.132812 92.929688 C 190.03125 92.421875 191.429688 90.691406 191.429688 88.628906 C 191.429688 86.167969 189.441406 84.175781 186.988281 84.175781 C 184.539062 84.175781 182.550781 86.167969 182.550781 88.628906 C 182.550781 90.691406 183.949219 92.421875 185.84375 92.929688 L 185.84375 104.539062 L 169.738281 104.539062 C 168.472656 104.539062 167.441406 105.574219 167.441406 106.84375 L 167.429688 130.910156 L 147.742188 130.910156 C 147.234375 129.007812 145.511719 127.605469 143.457031 127.605469 C 141.003906 127.605469 139.015625 129.597656 139.015625 132.058594 C 139.015625 134.519531 141.003906 136.511719 143.457031 136.511719 C 145.511719 136.511719 147.234375 135.109375 147.742188 133.207031 L 167.429688 133.207031 C 168.699219 133.207031 169.730469 132.171875 169.730469 130.902344 L 169.738281 106.835938 L 185.84375 106.835938 L 185.84375 135.035156 C 185.84375 142.945312 179.433594 149.375 171.550781 149.375 L 128.539062 149.375 C 128.035156 147.476562 126.3125 146.070312 124.253906 146.070312 C 121.804688 146.070312 119.816406 148.066406 119.816406 150.523438 C 119.816406 152.984375 121.804688 154.980469 124.253906 154.980469 C 126.3125 154.980469 128.035156 153.574219 128.539062 151.675781 L 141.15625 151.675781 L 141.15625 167.835938 C 141.15625 169.105469 142.1875 170.140625 143.457031 170.140625 L 167.441406 170.148438 L 167.441406 189.90625 C 165.542969 190.414062 164.144531 192.144531 164.144531 194.207031 C 164.144531 196.664062 166.132812 198.660156 168.585938 198.660156 C 171.035156 198.660156 173.023438 196.664062 173.023438 194.207031 C 173.023438 192.144531 171.625 190.414062 169.730469 189.90625 Z M 254.816406 150.523438 C 254.816406 152.984375 252.828125 154.980469 250.378906 154.980469 C 248.320312 154.980469 246.597656 153.574219 246.09375 151.675781 L 202.425781 151.675781 C 194.542969 151.675781 188.132812 158.105469 188.132812 166.015625 L 188.132812 194.214844 L 204.238281 194.214844 L 204.25 170.148438 C 204.25 168.878906 205.277344 167.84375 206.546875 167.84375 L 226.238281 167.84375 C 226.742188 165.941406 228.46875 164.539062 230.523438 164.539062 C 232.972656 164.539062 234.960938 166.53125 234.960938 168.992188 C 234.960938 171.449219 232.972656 173.445312 230.523438 173.445312 C 228.46875 173.445312 226.742188 172.042969 226.238281 170.140625 L 206.546875 170.140625 L 206.539062 194.207031 C 206.539062 195.476562 205.507812 196.511719 204.238281 196.511719 L 188.132812 196.511719 L 188.132812 208.121094 C 190.03125 208.628906 191.429688 210.359375 191.429688 212.421875 C 191.429688 214.882812 189.441406 216.875 186.988281 216.875 C 184.539062 216.875 182.550781 214.882812 182.550781 212.421875 C 182.550781 210.359375 183.949219 208.628906 185.84375 208.121094 L 185.84375 166.015625 C 185.84375 156.839844 193.28125 149.375 202.425781 149.375 L 230.53125 149.375 L 230.53125 133.214844 L 206.546875 133.207031 C 205.277344 133.207031 204.25 132.171875 204.25 130.902344 L 204.25 111.144531 C 202.351562 110.636719 200.953125 108.90625 200.953125 106.84375 C 200.953125 104.382812 202.941406 102.390625 205.394531 102.390625 C 207.84375 102.390625 209.832031 104.382812 209.832031 106.84375 C 209.832031 108.90625 208.433594 110.636719 206.539062 111.144531 L 206.539062 130.902344 L 230.523438 130.910156 C 231.789062 130.910156 232.820312 131.945312 232.820312 133.214844 L 232.820312 149.375 L 246.09375 149.375 C 246.597656 147.476562 248.320312 146.070312 250.378906 146.070312 C 252.828125 146.070312 254.816406 148.066406 254.816406 150.523438 " fill-opacity="1" fill-rule="nonzero"/></g><g fill="#ff1616" fill-opacity="1"><g transform="translate(123.130566, 285.929307)"><g><path d="M 11.265625 -10.65625 L 11.265625 0 L 9.90625 0 L 9.90625 -8.390625 L 6.875 -2.125 L 5.625 -2.125 L 2.578125 -8.421875 L 2.578125 0 L 1.21875 0 L 1.21875 -10.65625 L 3.046875 -10.65625 L 6.265625 -3.875 L 9.515625 -10.65625 Z M 11.265625 -10.65625 "/></g></g></g><g fill="#ff1616" fill-opacity="1"><g transform="translate(137.45581, 285.929307)"><g><path d="M 1.671875 0 L 0.140625 0 L 4.359375 -10.65625 L 5.84375 -10.65625 L 10.015625 0 L 8.484375 0 L 7.515625 -2.5625 L 2.640625 -2.5625 Z M 5.0625 -9.328125 C 4.945312 -8.929688 4.8125 -8.507812 4.65625 -8.0625 C 4.507812 -7.625 4.359375 -7.1875 4.203125 -6.75 L 3.109375 -3.84375 L 7.03125 -3.84375 L 5.953125 -6.75 C 5.722656 -7.375 5.539062 -7.878906 5.40625 -8.265625 C 5.28125 -8.648438 5.164062 -9.003906 5.0625 -9.328125 Z M 5.0625 -9.328125 "/></g></g></g><g fill="#ff1616" fill-opacity="1"><g transform="translate(149.453132, 285.929307)"><g><path d="M 4.3125 0 L 1.21875 0 L 1.21875 -10.65625 L 4.3125 -10.65625 C 5.40625 -10.65625 6.269531 -10.5625 6.90625 -10.375 C 7.550781 -10.195312 8.066406 -9.910156 8.453125 -9.515625 C 8.835938 -9.117188 9.113281 -8.582031 9.28125 -7.90625 C 9.457031 -7.238281 9.546875 -6.382812 9.546875 -5.34375 C 9.546875 -3.488281 9.132812 -2.132812 8.3125 -1.28125 C 7.488281 -0.425781 6.15625 0 4.3125 0 Z M 7.359375 -8.484375 C 7.097656 -8.785156 6.734375 -9.003906 6.265625 -9.140625 C 5.804688 -9.273438 5.15625 -9.34375 4.3125 -9.34375 L 2.671875 -9.34375 L 2.671875 -1.359375 L 4.3125 -1.359375 C 5.71875 -1.359375 6.695312 -1.65625 7.25 -2.25 C 7.800781 -2.851562 8.078125 -3.882812 8.078125 -5.34375 C 8.078125 -6.144531 8.019531 -6.796875 7.90625 -7.296875 C 7.789062 -7.796875 7.609375 -8.191406 7.359375 -8.484375 Z M 7.359375 -8.484375 "/></g></g></g><g fill="#ff1616" fill-opacity="1"><g transform="translate(161.586386, 285.929307)"><g><path d="M 8.296875 -1.359375 L 8.296875 0 L 1.21875 0 L 1.21875 -10.65625 L 8.140625 -10.65625 L 8.140625 -9.34375 L 2.671875 -9.34375 L 2.671875 -6.09375 L 7.515625 -6.09375 L 7.515625 -4.8125 L 2.671875 -4.8125 L 2.671875 -1.359375 Z M 8.296875 -1.359375 "/></g></g></g><g fill="#ff1616" fill-opacity="1"><g transform="translate(172.309293, 285.929307)"><g/></g></g><g fill="#ff1616" fill-opacity="1"><g transform="translate(177.050958, 285.929307)"><g><path d="M 2.671875 -4.390625 L 2.671875 0 L 1.21875 0 L 1.21875 -10.65625 L 8.0625 -10.65625 L 8.0625 -9.34375 L 2.671875 -9.34375 L 2.671875 -5.65625 L 7.421875 -5.65625 L 7.421875 -4.390625 Z M 2.671875 -4.390625 "/></g></g></g><g fill="#ff1616" fill-opacity="1"><g transform="translate(187.34906, 285.929307)"><g><path d="M 10.265625 -5.359375 C 10.265625 -3.421875 9.894531 -2.019531 9.15625 -1.15625 C 8.414062 -0.289062 7.207031 0.140625 5.53125 0.140625 C 3.726562 0.140625 2.484375 -0.257812 1.796875 -1.0625 C 1.109375 -1.863281 0.765625 -3.296875 0.765625 -5.359375 C 0.765625 -7.285156 1.140625 -8.675781 1.890625 -9.53125 C 2.640625 -10.394531 3.851562 -10.828125 5.53125 -10.828125 C 7.332031 -10.828125 8.570312 -10.425781 9.25 -9.625 C 9.925781 -8.832031 10.265625 -7.410156 10.265625 -5.359375 Z M 2.734375 -2.28125 C 2.953125 -1.894531 3.269531 -1.617188 3.6875 -1.453125 C 4.101562 -1.296875 4.71875 -1.21875 5.53125 -1.21875 C 6.78125 -1.21875 7.640625 -1.519531 8.109375 -2.125 C 8.578125 -2.738281 8.8125 -3.816406 8.8125 -5.359375 C 8.8125 -6.128906 8.769531 -6.757812 8.6875 -7.25 C 8.601562 -7.738281 8.476562 -8.140625 8.3125 -8.453125 C 8.09375 -8.835938 7.773438 -9.109375 7.359375 -9.265625 C 6.953125 -9.429688 6.34375 -9.515625 5.53125 -9.515625 C 4.257812 -9.515625 3.390625 -9.207031 2.921875 -8.59375 C 2.460938 -7.988281 2.234375 -6.910156 2.234375 -5.359375 C 2.234375 -4.585938 2.269531 -3.953125 2.34375 -3.453125 C 2.425781 -2.960938 2.554688 -2.570312 2.734375 -2.28125 Z M 2.734375 -2.28125 "/></g></g></g><g fill="#ff1616" fill-opacity="1"><g transform="translate(200.212974, 285.929307)"><g><path d="M 2.671875 -3.828125 L 2.671875 0 L 1.21875 0 L 1.21875 -10.65625 L 4.84375 -10.65625 C 6.351562 -10.65625 7.429688 -10.394531 8.078125 -9.875 C 8.734375 -9.363281 9.0625 -8.515625 9.0625 -7.328125 C 9.0625 -6.398438 8.851562 -5.660156 8.4375 -5.109375 C 8.019531 -4.554688 7.394531 -4.1875 6.5625 -4 L 9.34375 0 L 7.609375 0 L 5.03125 -3.828125 Z M 7.59375 -7.328125 C 7.59375 -8.054688 7.382812 -8.570312 6.96875 -8.875 C 6.550781 -9.1875 5.84375 -9.34375 4.84375 -9.34375 L 2.671875 -9.34375 L 2.671875 -5.09375 L 4.84375 -5.09375 C 5.820312 -5.09375 6.523438 -5.269531 6.953125 -5.625 C 7.378906 -5.976562 7.59375 -6.546875 7.59375 -7.328125 Z M 7.59375 -7.328125 "/></g></g></g><g fill="#ff1616" fill-opacity="1"><g transform="translate(211.887435, 285.929307)"><g/></g></g><g fill="#ff1616" fill-opacity="1"><g transform="translate(216.629099, 285.929307)"><g><path d="M 8.09375 -10.65625 L 9.59375 -10.65625 L 5.625 -4.046875 L 5.625 0 L 4.1875 0 L 4.1875 -4.046875 L 0.125 -10.65625 L 1.75 -10.65625 L 4.9375 -5.34375 Z M 8.09375 -10.65625 "/></g></g></g><g fill="#ff1616" fill-opacity="1"><g transform="translate(228.235593, 285.929307)"><g><path d="M 10.265625 -5.359375 C 10.265625 -3.421875 9.894531 -2.019531 9.15625 -1.15625 C 8.414062 -0.289062 7.207031 0.140625 5.53125 0.140625 C 3.726562 0.140625 2.484375 -0.257812 1.796875 -1.0625 C 1.109375 -1.863281 0.765625 -3.296875 0.765625 -5.359375 C 0.765625 -7.285156 1.140625 -8.675781 1.890625 -9.53125 C 2.640625 -10.394531 3.851562 -10.828125 5.53125 -10.828125 C 7.332031 -10.828125 8.570312 -10.425781 9.25 -9.625 C 9.925781 -8.832031 10.265625 -7.410156 10.265625 -5.359375 Z M 2.734375 -2.28125 C 2.953125 -1.894531 3.269531 -1.617188 3.6875 -1.453125 C 4.101562 -1.296875 4.71875 -1.21875 5.53125 -1.21875 C 6.78125 -1.21875 7.640625 -1.519531 8.109375 -2.125 C 8.578125 -2.738281 8.8125 -3.816406 8.8125 -5.359375 C 8.8125 -6.128906 8.769531 -6.757812 8.6875 -7.25 C 8.601562 -7.738281 8.476562 -8.140625 8.3125 -8.453125 C 8.09375 -8.835938 7.773438 -9.109375 7.359375 -9.265625 C 6.953125 -9.429688 6.34375 -9.515625 5.53125 -9.515625 C 4.257812 -9.515625 3.390625 -9.207031 2.921875 -8.59375 C 2.460938 -7.988281 2.234375 -6.910156 2.234375 -5.359375 C 2.234375 -4.585938 2.269531 -3.953125 2.34375 -3.453125 C 2.425781 -2.960938 2.554688 -2.570312 2.734375 -2.28125 Z M 2.734375 -2.28125 "/></g></g></g><g fill="#ff1616" fill-opacity="1"><g transform="translate(241.099507, 285.929307)"><g><path d="M 8.1875 -4.25 L 8.1875 -10.65625 L 9.640625 -10.65625 L 9.640625 -4.25 C 9.640625 -2.75 9.289062 -1.640625 8.59375 -0.921875 C 7.894531 -0.210938 6.816406 0.140625 5.359375 0.140625 C 3.878906 0.140625 2.800781 -0.207031 2.125 -0.90625 C 1.457031 -1.601562 1.125 -2.71875 1.125 -4.25 L 1.125 -10.65625 L 2.5625 -10.65625 L 2.5625 -4.25 C 2.5625 -3.125 2.769531 -2.335938 3.1875 -1.890625 C 3.601562 -1.441406 4.328125 -1.21875 5.359375 -1.21875 C 6.398438 -1.21875 7.128906 -1.441406 7.546875 -1.890625 C 7.972656 -2.335938 8.1875 -3.125 8.1875 -4.25 Z M 8.1875 -4.25 "/></g></g></g><g fill="#545454" fill-opacity="1"><g transform="translate(21.437504, 254.094843)"><g><path d="M 21.59375 0 L 21.5625 -12.59375 L 15.390625 -2.21875 L 13.203125 -2.21875 L 7.046875 -12.328125 L 7.046875 0 L 2.484375 0 L 2.484375 -21 L 6.515625 -21 L 14.375 -7.953125 L 22.109375 -21 L 26.09375 -21 L 26.15625 0 Z M 21.59375 0 "/></g></g></g><g fill="#545454" fill-opacity="1"><g transform="translate(50.076376, 254.094843)"><g><path d="M 18.75 -3.90625 L 18.75 0 L 2.484375 0 L 2.484375 -21 L 18.359375 -21 L 18.359375 -17.09375 L 7.3125 -17.09375 L 7.3125 -12.546875 L 17.0625 -12.546875 L 17.0625 -8.765625 L 7.3125 -8.765625 L 7.3125 -3.90625 Z M 18.75 -3.90625 "/></g></g></g><g fill="#545454" fill-opacity="1"><g transform="translate(70.198556, 254.094843)"><g><path d="M 2.484375 -21 L 12.03125 -21 C 14.3125 -21 16.328125 -20.5625 18.078125 -19.6875 C 19.828125 -18.820312 21.1875 -17.597656 22.15625 -16.015625 C 23.125 -14.441406 23.609375 -12.601562 23.609375 -10.5 C 23.609375 -8.394531 23.125 -6.550781 22.15625 -4.96875 C 21.1875 -3.394531 19.828125 -2.171875 18.078125 -1.296875 C 16.328125 -0.429688 14.3125 0 12.03125 0 L 2.484375 0 Z M 11.796875 -3.984375 C 13.890625 -3.984375 15.5625 -4.566406 16.8125 -5.734375 C 18.0625 -6.910156 18.6875 -8.5 18.6875 -10.5 C 18.6875 -12.5 18.0625 -14.082031 16.8125 -15.25 C 15.5625 -16.425781 13.890625 -17.015625 11.796875 -17.015625 L 7.34375 -17.015625 L 7.34375 -3.984375 Z M 11.796875 -3.984375 "/></g></g></g><g fill="#545454" fill-opacity="1"><g transform="translate(94.968925, 254.094843)"><g><path d="M 2.484375 -21 L 7.34375 -21 L 7.34375 0 L 2.484375 0 Z M 2.484375 -21 "/></g></g></g><g fill="#545454" fill-opacity="1"><g transform="translate(104.805099, 254.094843)"><g><path d="M 12.546875 0.359375 C 10.398438 0.359375 8.460938 -0.101562 6.734375 -1.03125 C 5.003906 -1.96875 3.644531 -3.257812 2.65625 -4.90625 C 1.664062 -6.550781 1.171875 -8.414062 1.171875 -10.5 C 1.171875 -12.582031 1.664062 -14.445312 2.65625 -16.09375 C 3.644531 -17.738281 5.003906 -19.023438 6.734375 -19.953125 C 8.460938 -20.890625 10.40625 -21.359375 12.5625 -21.359375 C 14.382812 -21.359375 16.03125 -21.035156 17.5 -20.390625 C 18.96875 -19.753906 20.203125 -18.835938 21.203125 -17.640625 L 18.09375 -14.765625 C 16.664062 -16.398438 14.90625 -17.21875 12.8125 -17.21875 C 11.507812 -17.21875 10.347656 -16.929688 9.328125 -16.359375 C 8.304688 -15.796875 7.507812 -15.003906 6.9375 -13.984375 C 6.375 -12.960938 6.09375 -11.800781 6.09375 -10.5 C 6.09375 -9.195312 6.375 -8.035156 6.9375 -7.015625 C 7.507812 -5.992188 8.304688 -5.195312 9.328125 -4.625 C 10.347656 -4.0625 11.507812 -3.78125 12.8125 -3.78125 C 14.90625 -3.78125 16.664062 -4.609375 18.09375 -6.265625 L 21.203125 -3.390625 C 20.203125 -2.171875 18.960938 -1.238281 17.484375 -0.59375 C 16.003906 0.0390625 14.359375 0.359375 12.546875 0.359375 Z M 12.546875 0.359375 "/></g></g></g><g fill="#545454" fill-opacity="1"><g transform="translate(126.786554, 254.094843)"><g><path d="M 2.484375 -21 L 7.34375 -21 L 7.34375 0 L 2.484375 0 Z M 2.484375 -21 "/></g></g></g><g fill="#545454" fill-opacity="1"><g transform="translate(136.622727, 254.094843)"><g><path d="M 21.75 -21 L 21.75 0 L 17.765625 0 L 7.296875 -12.75 L 7.296875 0 L 2.484375 0 L 2.484375 -21 L 6.515625 -21 L 16.953125 -8.25 L 16.953125 -21 Z M 21.75 -21 "/></g></g></g><g fill="#545454" fill-opacity="1"><g transform="translate(160.853313, 254.094843)"><g><path d="M 18.75 -3.90625 L 18.75 0 L 2.484375 0 L 2.484375 -21 L 18.359375 -21 L 18.359375 -17.09375 L 7.3125 -17.09375 L 7.3125 -12.546875 L 17.0625 -12.546875 L 17.0625 -8.765625 L 7.3125 -8.765625 L 7.3125 -3.90625 Z M 18.75 -3.90625 "/></g></g></g><g fill="#545454" fill-opacity="1"><g transform="translate(180.975492, 254.094843)"><g/></g></g><g fill="#545454" fill-opacity="1"><g transform="translate(189.46219, 254.094843)"><g><path d="M 21.59375 0 L 21.5625 -12.59375 L 15.390625 -2.21875 L 13.203125 -2.21875 L 7.046875 -12.328125 L 7.046875 0 L 2.484375 0 L 2.484375 -21 L 6.515625 -21 L 14.375 -7.953125 L 22.109375 -21 L 26.09375 -21 L 26.15625 0 Z M 21.59375 0 "/></g></g></g><g fill="#545454" fill-opacity="1"><g transform="translate(218.101051, 254.094843)"><g><path d="M 16.3125 -4.5 L 6.5625 -4.5 L 4.703125 0 L -0.265625 0 L 9.09375 -21 L 13.890625 -21 L 23.28125 0 L 18.1875 0 Z M 14.796875 -8.1875 L 11.453125 -16.234375 L 8.125 -8.1875 Z M 14.796875 -8.1875 "/></g></g></g><g fill="#545454" fill-opacity="1"><g transform="translate(241.072134, 254.094843)"><g><path d="M 21.75 -21 L 21.75 0 L 17.765625 0 L 7.296875 -12.75 L 7.296875 0 L 2.484375 0 L 2.484375 -21 L 6.515625 -21 L 16.953125 -8.25 L 16.953125 -21 Z M 21.75 -21 "/></g></g></g><g fill="#545454" fill-opacity="1"><g transform="translate(265.302708, 254.094843)"><g><path d="M 16.3125 -4.5 L 6.5625 -4.5 L 4.703125 0 L -0.265625 0 L 9.09375 -21 L 13.890625 -21 L 23.28125 0 L 18.1875 0 Z M 14.796875 -8.1875 L 11.453125 -16.234375 L 8.125 -8.1875 Z M 14.796875 -8.1875 "/></g></g></g><g fill="#545454" fill-opacity="1"><g transform="translate(288.273791, 254.094843)"><g><path d="M 16.6875 -10.828125 L 21.125 -10.828125 L 21.125 -2.3125 C 19.976562 -1.445312 18.65625 -0.785156 17.15625 -0.328125 C 15.65625 0.128906 14.144531 0.359375 12.625 0.359375 C 10.445312 0.359375 8.488281 -0.101562 6.75 -1.03125 C 5.007812 -1.96875 3.644531 -3.257812 2.65625 -4.90625 C 1.664062 -6.550781 1.171875 -8.414062 1.171875 -10.5 C 1.171875 -12.582031 1.664062 -14.445312 2.65625 -16.09375 C 3.644531 -17.738281 5.019531 -19.023438 6.78125 -19.953125 C 8.539062 -20.890625 10.519531 -21.359375 12.71875 -21.359375 C 14.5625 -21.359375 16.234375 -21.046875 17.734375 -20.421875 C 19.234375 -19.804688 20.492188 -18.910156 21.515625 -17.734375 L 18.390625 -14.84375 C 16.890625 -16.425781 15.078125 -17.21875 12.953125 -17.21875 C 11.617188 -17.21875 10.429688 -16.9375 9.390625 -16.375 C 8.347656 -15.820312 7.535156 -15.035156 6.953125 -14.015625 C 6.378906 -12.992188 6.09375 -11.820312 6.09375 -10.5 C 6.09375 -9.195312 6.378906 -8.035156 6.953125 -7.015625 C 7.535156 -5.992188 8.34375 -5.195312 9.375 -4.625 C 10.40625 -4.0625 11.582031 -3.78125 12.90625 -3.78125 C 14.300781 -3.78125 15.5625 -4.082031 16.6875 -4.6875 Z M 16.6875 -10.828125 "/></g></g></g><g fill="#545454" fill-opacity="1"><g transform="translate(311.394792, 254.094843)"><g><path d="M 18.75 -3.90625 L 18.75 0 L 2.484375 0 L 2.484375 -21 L 18.359375 -21 L 18.359375 -17.09375 L 7.3125 -17.09375 L 7.3125 -12.546875 L 17.0625 -12.546875 L 17.0625 -8.765625 L 7.3125 -8.765625 L 7.3125 -3.90625 Z M 18.75 -3.90625 "/></g></g></g><g fill="#545454" fill-opacity="1"><g transform="translate(331.516983, 254.094843)"><g><path d="M 15.875 0 L 11.8125 -5.84375 L 7.34375 -5.84375 L 7.34375 0 L 2.484375 0 L 2.484375 -21 L 11.578125 -21 C 13.441406 -21 15.054688 -20.6875 16.421875 -20.0625 C 17.796875 -19.445312 18.851562 -18.566406 19.59375 -17.421875 C 20.332031 -16.285156 20.703125 -14.9375 20.703125 -13.375 C 20.703125 -11.820312 20.328125 -10.476562 19.578125 -9.34375 C 18.828125 -8.21875 17.757812 -7.351562 16.375 -6.75 L 21.09375 0 Z M 15.78125 -13.375 C 15.78125 -14.5625 15.398438 -15.46875 14.640625 -16.09375 C 13.878906 -16.726562 12.769531 -17.046875 11.3125 -17.046875 L 7.34375 -17.046875 L 7.34375 -9.71875 L 11.3125 -9.71875 C 12.769531 -9.71875 13.878906 -10.035156 14.640625 -10.671875 C 15.398438 -11.316406 15.78125 -12.21875 15.78125 -13.375 Z M 15.78125 -13.375 "/></g></g></g></svg>